<svg width="24" height="24" viewBox="0 0 24 24" fill="none" xmlns="http://www.w3.org/2000/svg">
<path d="M10.5747 5.21659L3.51632 16.9999C3.37079 17.2519 3.29379 17.5377 3.29298 17.8287C3.29216 18.1197 3.36756 18.4059 3.51167 18.6587C3.65579 18.9115 3.86359 19.1222 4.11441 19.2698C4.36523 19.4174 4.65032 19.4967 4.94132 19.4999H19.058C19.349 19.4967 19.6341 19.4174 19.8849 19.2698C20.1357 19.1222 20.3435 18.9115 20.4876 18.6587C20.6317 18.4059 20.7071 18.1197 20.7063 17.8287C20.7055 17.5377 20.6285 17.2519 20.483 16.9999L13.4247 5.21659C13.2761 4.97168 13.0669 4.76919 12.8173 4.62866C12.5677 4.48813 12.2861 4.41431 11.9997 4.41431C11.7132 4.41431 11.4316 4.48813 11.182 4.62866C10.9324 4.76919 10.7232 4.97168 10.5747 5.21659V5.21659Z" stroke="#232124" stroke-width="1.7" stroke-linecap="round" stroke-linejoin="round"/>
<path d="M12 9.5V12.8333" stroke="#232124" stroke-width="1.7" stroke-linecap="round" stroke-linejoin="round"/>
<path d="M12 16.1667H12.0083" stroke="#232124" stroke-width="1.7" stroke-linecap="round" stroke-linejoin="round"/>
</svg>
