<svg width="32" height="32" viewBox="0 0 32 32" fill="none" xmlns="http://www.w3.org/2000/svg">
<g clip-path="url(#clip0_2935_10132)">
<path d="M14.036 6.6414L4.30783 22.8818C4.10726 23.2292 4.00113 23.623 4.00001 24.0241C3.99889 24.4252 4.10281 24.8196 4.30143 25.168C4.50005 25.5165 4.78646 25.8069 5.13215 26.0103C5.47784 26.2137 5.87077 26.3231 6.27184 26.3275H25.7282C26.1293 26.3231 26.5222 26.2137 26.8679 26.0103C27.2136 25.8069 27.5 25.5165 27.6986 25.168C27.8972 24.8196 28.0012 24.4252 28 24.0241C27.9989 23.623 27.8928 23.2292 27.6922 22.8818L17.964 6.6414C17.7593 6.30385 17.471 6.02477 17.127 5.83108C16.783 5.6374 16.3948 5.53564 16 5.53564C15.6052 5.53564 15.2171 5.6374 14.8731 5.83108C14.5291 6.02477 14.2408 6.30385 14.036 6.6414V6.6414Z" stroke="#232124" stroke-width="2.5" stroke-linecap="round" stroke-linejoin="round"/>
<path d="M16 13V17.139" stroke="#232124" stroke-width="2.5" stroke-linecap="round" stroke-linejoin="round"/>
<path d="M16 21.5H16.0122" stroke="#232124" stroke-width="2.5" stroke-linecap="round" stroke-linejoin="round"/>
</g>
<defs>
<clipPath id="clip0_2935_10132">
<rect width="32" height="32" fill="white"/>
</clipPath>
</defs>
</svg>
