<svg width="24" height="24" viewBox="0 0 24 24" fill="none" xmlns="http://www.w3.org/2000/svg">
<path d="M17.8327 5.33341H16.166V4.50008C16.166 4.27907 16.0782 4.06711 15.9219 3.91083C15.7657 3.75455 15.5537 3.66675 15.3327 3.66675C15.1117 3.66675 14.8997 3.75455 14.7434 3.91083C14.5871 4.06711 14.4993 4.27907 14.4993 4.50008V5.33341H9.49935V4.50008C9.49935 4.27907 9.41155 4.06711 9.25527 3.91083C9.09899 3.75455 8.88703 3.66675 8.66602 3.66675C8.445 3.66675 8.23304 3.75455 8.07676 3.91083C7.92048 4.06711 7.83268 4.27907 7.83268 4.50008V5.33341H6.16602C5.50297 5.33341 4.86709 5.59681 4.39825 6.06565C3.92941 6.53449 3.66602 7.17037 3.66602 7.83341V17.8334C3.66602 18.4965 3.92941 19.1323 4.39825 19.6012C4.86709 20.07 5.50297 20.3334 6.16602 20.3334H17.8327C18.4957 20.3334 19.1316 20.07 19.6005 19.6012C20.0693 19.1323 20.3327 18.4965 20.3327 17.8334V7.83341C20.3327 7.17037 20.0693 6.53449 19.6005 6.06565C19.1316 5.59681 18.4957 5.33341 17.8327 5.33341V5.33341ZM18.666 17.8334C18.666 18.0544 18.5782 18.2664 18.4219 18.4227C18.2657 18.579 18.0537 18.6667 17.8327 18.6667H6.16602C5.945 18.6667 5.73304 18.579 5.57676 18.4227C5.42048 18.2664 5.33268 18.0544 5.33268 17.8334V12.0001H18.666V17.8334ZM18.666 10.3334H5.33268V7.83341C5.33268 7.6124 5.42048 7.40044 5.57676 7.24416C5.73304 7.08788 5.945 7.00008 6.16602 7.00008H7.83268V7.83341C7.83268 8.05443 7.92048 8.26639 8.07676 8.42267C8.23304 8.57895 8.445 8.66675 8.66602 8.66675C8.88703 8.66675 9.09899 8.57895 9.25527 8.42267C9.41155 8.26639 9.49935 8.05443 9.49935 7.83341V7.00008H14.4993V7.83341C14.4993 8.05443 14.5871 8.26639 14.7434 8.42267C14.8997 8.57895 15.1117 8.66675 15.3327 8.66675C15.5537 8.66675 15.7657 8.57895 15.9219 8.42267C16.0782 8.26639 16.166 8.05443 16.166 7.83341V7.00008H17.8327C18.0537 7.00008 18.2657 7.08788 18.4219 7.24416C18.5782 7.40044 18.666 7.6124 18.666 7.83341V10.3334Z" fill="#232124"/>
</svg>
