<svg width="24" height="24" viewBox="0 0 24 24" fill="none" xmlns="http://www.w3.org/2000/svg">
<g clip-path="url(#clip0_2935_10419)">
<path d="M18.6667 9.5H11.1667C10.2462 9.5 9.5 10.2462 9.5 11.1667V18.6667C9.5 19.5871 10.2462 20.3333 11.1667 20.3333H18.6667C19.5871 20.3333 20.3333 19.5871 20.3333 18.6667V11.1667C20.3333 10.2462 19.5871 9.5 18.6667 9.5Z" stroke="#232124" stroke-width="1.7" stroke-linecap="round" stroke-linejoin="round"/>
<path d="M6.16602 14.5001H5.33268C4.89065 14.5001 4.46673 14.3245 4.15417 14.0119C3.84161 13.6994 3.66602 13.2754 3.66602 12.8334V5.33341C3.66602 4.89139 3.84161 4.46746 4.15417 4.1549C4.46673 3.84234 4.89065 3.66675 5.33268 3.66675H12.8327C13.2747 3.66675 13.6986 3.84234 14.0112 4.1549C14.3238 4.46746 14.4993 4.89139 14.4993 5.33341V6.16675" stroke="#232124" stroke-width="1.7" stroke-linecap="round" stroke-linejoin="round"/>
</g>
<defs>
<clipPath id="clip0_2935_10419">
<rect width="20" height="20" fill="white" transform="translate(2 2)"/>
</clipPath>
</defs>
</svg>
