<svg width="24" height="24" viewBox="0 0 24 24" fill="none" xmlns="http://www.w3.org/2000/svg">
<path d="M4.5 7H6.16667H19.5" stroke="#232124" stroke-width="1.7" stroke-linecap="round" stroke-linejoin="round"/>
<path d="M8.66602 7.00008V5.33341C8.66602 4.89139 8.84161 4.46746 9.15417 4.1549C9.46673 3.84234 9.89066 3.66675 10.3327 3.66675H13.666C14.108 3.66675 14.532 3.84234 14.8445 4.1549C15.1571 4.46746 15.3327 4.89139 15.3327 5.33341V7.00008M17.8327 7.00008V18.6667C17.8327 19.1088 17.6571 19.5327 17.3445 19.8453C17.032 20.1578 16.608 20.3334 16.166 20.3334H7.83268C7.39065 20.3334 6.96673 20.1578 6.65417 19.8453C6.34161 19.5327 6.16602 19.1088 6.16602 18.6667V7.00008H17.8327Z" stroke="#232124" stroke-width="1.7" stroke-linecap="round" stroke-linejoin="round"/>
<path d="M13.666 11.1667V16.1667" stroke="#232124" stroke-width="1.7" stroke-linecap="round" stroke-linejoin="round"/>
<path d="M10.334 11.1667V16.1667" stroke="#232124" stroke-width="1.7" stroke-linecap="round" stroke-linejoin="round"/>
</svg>
