<svg width="16" height="16" viewBox="0 0 16 16" fill="none" xmlns="http://www.w3.org/2000/svg">
<path d="M8.66654 3.3334L8.66654 11.0601L10.1932 9.52673C10.2554 9.46458 10.3292 9.41527 10.4104 9.38163C10.4916 9.34799 10.5786 9.33067 10.6665 9.33067C10.7544 9.33067 10.8415 9.34799 10.9227 9.38163C11.0039 9.41527 11.0777 9.46458 11.1399 9.52673C11.202 9.58889 11.2513 9.66269 11.285 9.7439C11.3186 9.82512 11.3359 9.91216 11.3359 10.0001C11.3359 10.088 11.3186 10.175 11.285 10.2562C11.2513 10.3374 11.202 10.4112 11.1399 10.4734L8.47321 13.1401C8.40981 13.2008 8.33504 13.2483 8.25321 13.2801C8.0909 13.3467 7.90885 13.3467 7.74654 13.2801C7.66471 13.2483 7.58995 13.2008 7.52654 13.1401L4.85988 10.4734C4.79739 10.4114 4.7478 10.3377 4.71395 10.2565C4.6801 10.1752 4.66268 10.0881 4.66268 10.0001C4.66268 9.91206 4.6801 9.82492 4.71395 9.74368C4.7478 9.66244 4.79739 9.58871 4.85988 9.52674C4.92185 9.46425 4.99559 9.41465 5.07683 9.38081C5.15807 9.34696 5.2452 9.32954 5.33321 9.32954C5.42122 9.32954 5.50836 9.34696 5.5896 9.38081C5.67083 9.41465 5.74457 9.46425 5.80654 9.52674L7.33321 11.0601L7.33321 3.3334C7.33321 3.15659 7.40345 2.98702 7.52847 2.862C7.6535 2.73697 7.82307 2.66673 7.99988 2.66673C8.17669 2.66673 8.34626 2.73697 8.47128 2.862C8.5963 2.98702 8.66654 3.15659 8.66654 3.3334Z" fill="#232124"/>
</svg>
