<svg width="24" height="24" viewBox="0 0 24 24" fill="none" xmlns="http://www.w3.org/2000/svg">
<g clip-path="url(#clip0_2935_10408)">
<path d="M16.166 4.49993C16.3849 4.28106 16.6447 4.10744 16.9307 3.98899C17.2167 3.87054 17.5232 3.80957 17.8327 3.80957C18.1422 3.80957 18.4487 3.87054 18.7347 3.98899C19.0206 4.10744 19.2805 4.28106 19.4993 4.49993C19.7182 4.7188 19.8918 4.97863 20.0103 5.2646C20.1287 5.55057 20.1897 5.85706 20.1897 6.16659C20.1897 6.47612 20.1287 6.78262 20.0103 7.06859C19.8918 7.35455 19.7182 7.61439 19.4993 7.83326L8.24935 19.0833L3.66602 20.3333L4.91602 15.7499L16.166 4.49993Z" stroke="#232124" stroke-width="1.7" stroke-linecap="round" stroke-linejoin="round"/>
</g>
<defs>
<clipPath id="clip0_2935_10408">
<rect width="20" height="20" fill="white" transform="translate(2 2)"/>
</clipPath>
</defs>
</svg>
