<svg width="24" height="24" viewBox="0 0 24 24" fill="none" xmlns="http://www.w3.org/2000/svg">
<path d="M17.8333 16.6667C18.2936 16.6667 18.6667 16.2936 18.6667 15.8333C18.6667 15.3731 18.2936 15 17.8333 15C17.3731 15 17 15.3731 17 15.8333C17 16.2936 17.3731 16.6667 17.8333 16.6667Z" stroke="#232124" stroke-width="1.7" stroke-linecap="round" stroke-linejoin="round"/>
<path d="M11.9993 16.6667C12.4596 16.6667 12.8327 16.2936 12.8327 15.8333C12.8327 15.3731 12.4596 15 11.9993 15C11.5391 15 11.166 15.3731 11.166 15.8333C11.166 16.2936 11.5391 16.6667 11.9993 16.6667Z" stroke="#232124" stroke-width="1.7" stroke-linecap="round" stroke-linejoin="round"/>
<path d="M6.16732 16.6667C6.62755 16.6667 7.00065 16.2936 7.00065 15.8333C7.00065 15.3731 6.62755 15 6.16732 15C5.70708 15 5.33398 15.3731 5.33398 15.8333C5.33398 16.2936 5.70708 16.6667 6.16732 16.6667Z" stroke="#232124" stroke-width="1.7" stroke-linecap="round" stroke-linejoin="round"/>
</svg>
