<svg width="24" height="24" viewBox="0 0 24 24" fill="none" xmlns="http://www.w3.org/2000/svg">
<g clip-path="url(#clip0_2935_10414)">
<path d="M10.2507 5.53327C10.8243 5.39901 11.4115 5.33189 12.0007 5.33327C17.834 5.33327 21.1673 11.9999 21.1673 11.9999C20.6615 12.9463 20.0582 13.8372 19.3673 14.6583M13.7673 13.7666C13.5384 14.0122 13.2624 14.2092 12.9558 14.3459C12.6491 14.4825 12.3181 14.556 11.9824 14.5619C11.6467 14.5678 11.3133 14.5061 11.002 14.3803C10.6907 14.2546 10.4079 14.0675 10.1705 13.8301C9.93313 13.5927 9.74598 13.3099 9.62024 12.9986C9.49451 12.6873 9.43276 12.3539 9.43868 12.0182C9.4446 11.6825 9.51808 11.3515 9.65472 11.0448C9.79135 10.7381 9.98836 10.4621 10.234 10.2333M16.9507 16.9499C15.5261 18.0358 13.7916 18.6373 12.0007 18.6666C6.16732 18.6666 2.83398 11.9999 2.83398 11.9999C3.87056 10.0682 5.30826 8.38045 7.05065 7.04994L16.9507 16.9499Z" stroke="#232124" stroke-width="1.7" stroke-linecap="round" stroke-linejoin="round"/>
<path d="M2.83398 2.83325L21.1673 21.1666" stroke="#232124" stroke-width="1.7" stroke-linecap="round" stroke-linejoin="round"/>
</g>
<defs>
<clipPath id="clip0_2935_10414">
<rect width="20" height="20" fill="white" transform="translate(2 2)"/>
</clipPath>
</defs>
</svg>
