<svg width="16" height="16" viewBox="0 0 16 16" fill="none" xmlns="http://www.w3.org/2000/svg">
<g clip-path="url(#clip0_2935_11003)">
<path d="M11.575 4.425H11.5815M4.75 1.5H11.25C13.0449 1.5 14.5 2.95507 14.5 4.75V11.25C14.5 13.0449 13.0449 14.5 11.25 14.5H4.75C2.95507 14.5 1.5 13.0449 1.5 11.25V4.75C1.5 2.95507 2.95507 1.5 4.75 1.5ZM10.6001 7.59038C10.6803 8.13134 10.5879 8.68382 10.3361 9.16924C10.0842 9.65466 9.68567 10.0483 9.19718 10.2942C8.7087 10.54 8.15512 10.6256 7.61519 10.5387C7.07526 10.4519 6.57647 10.1969 6.18977 9.81023C5.80307 9.42353 5.54815 8.92475 5.46127 8.38482C5.37439 7.84489 5.45997 7.29131 5.70584 6.80282C5.95171 6.31433 6.34535 5.91581 6.83077 5.66394C7.31619 5.41206 7.86867 5.31966 8.40963 5.39988C8.96143 5.4817 9.47228 5.73883 9.86673 6.13328C10.2612 6.52773 10.5183 7.03858 10.6001 7.59038Z" stroke="#232124" stroke-width="1.5" stroke-linecap="round" stroke-linejoin="round"/>
</g>
<defs>
<clipPath id="clip0_2935_11003">
<rect width="16" height="16" fill="white"/>
</clipPath>
</defs>
</svg>
