<svg width="24" height="24" viewBox="0 0 24 24" fill="none" xmlns="http://www.w3.org/2000/svg">
<path d="M17.225 6.77524H17.2345M7.25 2.50024H16.75C19.3734 2.50024 21.5 4.62689 21.5 7.25024V16.7502C21.5 19.3736 19.3734 21.5002 16.75 21.5002H7.25C4.62665 21.5002 2.5 19.3736 2.5 16.7502V7.25024C2.5 4.62689 4.62665 2.50024 7.25 2.50024ZM15.8002 11.4016C15.9174 12.1922 15.7824 12.9997 15.4143 13.7091C15.0461 14.4186 14.4637 14.9939 13.7497 15.3533C13.0358 15.7126 12.2267 15.8377 11.4376 15.7107C10.6485 15.5837 9.91946 15.2111 9.35428 14.646C8.78911 14.0808 8.41653 13.3518 8.28955 12.5627C8.16257 11.7735 8.28765 10.9645 8.647 10.2505C9.00634 9.53658 9.58166 8.95412 10.2911 8.586C11.0006 8.21787 11.8081 8.08283 12.5987 8.20007C13.4052 8.31966 14.1518 8.69546 14.7283 9.27196C15.3048 9.84846 15.6806 10.5951 15.8002 11.4016Z" stroke="#232124" stroke-width="1.9" stroke-linecap="round" stroke-linejoin="round"/>
</svg>
