<svg width="16" height="16" viewBox="0 0 16 16" fill="none" xmlns="http://www.w3.org/2000/svg">
<path d="M8.66654 12.6634L8.66654 4.93676L10.1932 6.47009C10.2554 6.53225 10.3292 6.58156 10.4104 6.6152C10.4916 6.64884 10.5786 6.66615 10.6665 6.66615C10.7544 6.66615 10.8415 6.64884 10.9227 6.6152C11.0039 6.58156 11.0777 6.53225 11.1399 6.47009C11.202 6.40793 11.2513 6.33414 11.285 6.25292C11.3186 6.17171 11.3359 6.08466 11.3359 5.99676C11.3359 5.90885 11.3186 5.82181 11.285 5.74059C11.2513 5.65938 11.202 5.58558 11.1399 5.52342L8.47321 2.85676C8.40981 2.79606 8.33504 2.74849 8.25321 2.71676C8.0909 2.65008 7.90885 2.65008 7.74654 2.71676C7.66471 2.74849 7.58995 2.79606 7.52654 2.85676L4.85988 5.52342C4.79739 5.5854 4.7478 5.65913 4.71395 5.74037C4.6801 5.82161 4.66268 5.90875 4.66268 5.99676C4.66268 6.08477 4.6801 6.1719 4.71395 6.25314C4.7478 6.33438 4.79739 6.40812 4.85988 6.47009C4.92185 6.53258 4.99559 6.58217 5.07683 6.61602C5.15807 6.64986 5.2452 6.66729 5.33321 6.66729C5.42122 6.66729 5.50836 6.64986 5.5896 6.61602C5.67083 6.58217 5.74457 6.53258 5.80654 6.47009L7.33321 4.93676L7.33321 12.6634C7.33321 12.8402 7.40345 13.0098 7.52847 13.1348C7.6535 13.2599 7.82307 13.3301 7.99988 13.3301C8.17669 13.3301 8.34626 13.2599 8.47128 13.1348C8.5963 13.0098 8.66654 12.8402 8.66654 12.6634Z" fill="#232124"/>
</svg>
