<svg width="24" height="24" viewBox="0 0 24 24" fill="none" xmlns="http://www.w3.org/2000/svg">
<g clip-path="url(#clip0_2935_10379)">
<path d="M15.334 19.5V17.8333C15.334 16.9493 14.9828 16.1014 14.3577 15.4763C13.7326 14.8512 12.8847 14.5 12.0007 14.5H6.16732C5.28326 14.5 4.43542 14.8512 3.8103 15.4763C3.18517 16.1014 2.83398 16.9493 2.83398 17.8333V19.5" stroke="#232124" stroke-width="1.7" stroke-linecap="round" stroke-linejoin="round"/>
<path d="M16.166 11.1667L17.8327 12.8333L21.166 9.5" stroke="#232124" stroke-width="1.7" stroke-linecap="round" stroke-linejoin="round"/>
<path d="M9.08333 11.1667C10.9243 11.1667 12.4167 9.67428 12.4167 7.83333C12.4167 5.99238 10.9243 4.5 9.08333 4.5C7.24238 4.5 5.75 5.99238 5.75 7.83333C5.75 9.67428 7.24238 11.1667 9.08333 11.1667Z" stroke="#232124" stroke-width="1.7" stroke-linecap="round" stroke-linejoin="round"/>
</g>
<defs>
<clipPath id="clip0_2935_10379">
<rect width="20" height="20" fill="white" transform="translate(2 2)"/>
</clipPath>
</defs>
</svg>
