<svg width="24" height="24" viewBox="0 0 24 24" fill="none" xmlns="http://www.w3.org/2000/svg">
<path d="M19.5 10.3636C19.5 16.0909 12 21 12 21C12 21 4.5 16.0909 4.5 10.3636C4.5 8.41068 5.29018 6.53771 6.6967 5.15676C8.10322 3.77581 10.0109 3 12 3C13.9891 3 15.8968 3.77581 17.3033 5.15676C18.7098 6.53771 19.5 8.41068 19.5 10.3636Z" stroke="#232124" stroke-width="1.7" stroke-linecap="round" stroke-linejoin="round"/>
<path d="M12 13C13.3807 13 14.5 11.8807 14.5 10.5C14.5 9.11929 13.3807 8 12 8C10.6193 8 9.5 9.11929 9.5 10.5C9.5 11.8807 10.6193 13 12 13Z" stroke="#232124" stroke-width="1.7" stroke-linecap="round" stroke-linejoin="round"/>
</svg>
