<svg width="24" height="24" viewBox="0 0 24 24" fill="none" xmlns="http://www.w3.org/2000/svg">
<circle cx="12" cy="12" r="10" fill="#6D54FE"/>
<path d="M9.19622 16V14.92L12.1242 11.932C12.8362 11.22 13.1922 10.604 13.1922 10.084C13.1922 9.676 13.0682 9.36 12.8202 9.136C12.5802 8.904 12.2722 8.788 11.8962 8.788C11.1922 8.788 10.6722 9.136 10.3362 9.832L9.17222 9.148C9.43622 8.588 9.80822 8.164 10.2882 7.876C10.7682 7.588 11.3002 7.444 11.8842 7.444C12.6202 7.444 13.2522 7.676 13.7802 8.14C14.3082 8.604 14.5722 9.236 14.5722 10.036C14.5722 10.892 14.0962 11.804 13.1442 12.772L11.2482 14.668H14.7282V16H9.19622Z" fill="white"/>
</svg>
