<svg width="24" height="24" viewBox="0 0 24 24" fill="none" xmlns="http://www.w3.org/2000/svg">
<path fill-rule="evenodd" clip-rule="evenodd" d="M12.8327 5.00008C12.8327 4.53984 12.4596 4.16675 11.9994 4.16675C11.5391 4.16675 11.166 4.53984 11.166 5.00008V11.1667H4.99939C4.53915 11.1667 4.16606 11.5398 4.16606 12.0001C4.16606 12.4603 4.53915 12.8334 4.99939 12.8334H11.166V19.0001C11.166 19.4603 11.5391 19.8334 11.9994 19.8334C12.4596 19.8334 12.8327 19.4603 12.8327 19.0001V12.8334H18.9994C19.4596 12.8334 19.8327 12.4603 19.8327 12.0001C19.8327 11.5398 19.4596 11.1667 18.9994 11.1667H12.8327V5.00008Z" fill="#232124"/>
</svg>
