<svg width="16" height="16" viewBox="0 0 16 16" fill="none" xmlns="http://www.w3.org/2000/svg">
<path d="M14.0007 7.33325C13.8238 7.33325 13.6543 7.40349 13.5292 7.52851C13.4042 7.65354 13.334 7.82311 13.334 7.99992C13.3419 9.24861 12.9142 10.461 12.1244 11.4282C11.3347 12.3955 10.2323 13.057 9.00729 13.299C7.78225 13.5409 6.51117 13.3481 5.41299 12.7538C4.3148 12.1594 3.45826 11.2007 2.99087 10.0428C2.52348 8.88481 2.47451 7.60013 2.8524 6.40997C3.23028 5.21981 4.01137 4.19868 5.06112 3.52244C6.11087 2.8462 7.36358 2.55719 8.60349 2.70519C9.8434 2.85319 10.9929 3.42893 11.854 4.33325H10.254C10.0772 4.33325 9.90761 4.40349 9.78258 4.52851C9.65756 4.65354 9.58732 4.82311 9.58732 4.99992C9.58732 5.17673 9.65756 5.3463 9.78258 5.47132C9.90761 5.59635 10.0772 5.66659 10.254 5.66659H13.274C13.4508 5.66659 13.6204 5.59635 13.7454 5.47132C13.8704 5.3463 13.9407 5.17673 13.9407 4.99992V1.99992C13.9407 1.82311 13.8704 1.65354 13.7454 1.52851C13.6204 1.40349 13.4508 1.33325 13.274 1.33325C13.0972 1.33325 12.9276 1.40349 12.8026 1.52851C12.6776 1.65354 12.6073 1.82311 12.6073 1.99992V3.17992C11.4971 2.11862 10.0545 1.47322 8.52333 1.3528C6.99218 1.23239 5.46641 1.64435 4.20393 2.51905C2.94146 3.39374 2.01973 4.67752 1.59454 6.15338C1.16935 7.62923 1.26679 9.20663 1.87039 10.6189C2.47399 12.0312 3.54672 13.1918 4.90725 13.9045C6.26778 14.6171 7.83265 14.8382 9.33735 14.5302C10.842 14.2223 12.1943 13.4042 13.1654 12.2144C14.1366 11.0245 14.6671 9.5358 14.6673 7.99992C14.6673 7.82311 14.5971 7.65354 14.4721 7.52851C14.347 7.40349 14.1775 7.33325 14.0007 7.33325Z" fill="#232124"/>
</svg>
