<svg width="24" height="24" viewBox="0 0 24 24" fill="none" xmlns="http://www.w3.org/2000/svg">
<path d="M19.4994 11.1667C19.2783 11.1667 19.0664 11.2545 18.9101 11.4108C18.7538 11.5671 18.666 11.7791 18.666 12.0001C18.6759 13.5609 18.1413 15.0764 17.1541 16.2855C16.1669 17.4945 14.789 18.3215 13.2577 18.6239C11.7263 18.9264 10.1375 18.6854 8.76477 17.9424C7.39204 17.1994 6.32135 16.0011 5.73712 14.5536C5.15289 13.1062 5.09168 11.5003 5.56403 10.0126C6.03639 8.52494 7.01274 7.24853 8.32494 6.40323C9.63713 5.55793 11.203 5.19668 12.7529 5.38167C14.3028 5.56667 15.7397 6.28635 16.816 7.41675H14.816C14.595 7.41675 14.383 7.50455 14.2268 7.66083C14.0705 7.81711 13.9827 8.02907 13.9827 8.25008C13.9827 8.4711 14.0705 8.68306 14.2268 8.83934C14.383 8.99562 14.595 9.08341 14.816 9.08341H18.591C18.812 9.08341 19.024 8.99562 19.1803 8.83934C19.3366 8.68306 19.4244 8.4711 19.4244 8.25008V4.50008C19.4244 4.27907 19.3366 4.06711 19.1803 3.91083C19.024 3.75455 18.812 3.66675 18.591 3.66675C18.37 3.66675 18.158 3.75455 18.0018 3.91083C17.8455 4.06711 17.7577 4.27907 17.7577 4.50008V5.97508C16.3699 4.64846 14.5666 3.84171 12.6527 3.69119C10.7388 3.54067 8.83154 4.05562 7.25345 5.14899C5.67536 6.24236 4.52319 7.84709 3.99171 9.69191C3.46022 11.5367 3.58203 13.5085 4.33652 15.2739C5.09102 17.0392 6.43194 18.49 8.1326 19.3808C9.83326 20.2716 11.7894 20.5479 13.6702 20.163C15.5511 19.778 17.2413 18.7555 18.4553 17.2681C19.6692 15.7808 20.3324 13.9199 20.3327 12.0001C20.3327 11.7791 20.2449 11.5671 20.0886 11.4108C19.9323 11.2545 19.7204 11.1667 19.4994 11.1667Z" fill="#232124"/>
</svg>
