<svg width="24" height="24" viewBox="0 0 24 24" fill="none" xmlns="http://www.w3.org/2000/svg">
<path d="M9.50065 14.5001C9.33583 14.5001 9.17472 14.549 9.03767 14.6405C8.90063 14.7321 8.79382 14.8622 8.73075 15.0145C8.66768 15.1668 8.65117 15.3343 8.68333 15.496C8.71548 15.6576 8.79485 15.8061 8.91139 15.9227C9.02794 16.0392 9.17642 16.1186 9.33808 16.1507C9.49973 16.1829 9.66728 16.1664 9.81955 16.1033C9.97183 16.0402 10.102 15.9334 10.1935 15.7964C10.2851 15.6594 10.334 15.4982 10.334 15.3334C10.334 15.1124 10.2462 14.9004 10.0899 14.7442C9.93363 14.5879 9.72166 14.5001 9.50065 14.5001ZM3.66732 13.6667C3.4463 13.6667 3.23434 13.7545 3.07806 13.9108C2.92178 14.0671 2.83398 14.2791 2.83398 14.5001V16.1668C2.83398 16.3878 2.92178 16.5997 3.07806 16.756C3.23434 16.9123 3.4463 17.0001 3.66732 17.0001C3.88833 17.0001 4.10029 16.9123 4.25657 16.756C4.41285 16.5997 4.50065 16.3878 4.50065 16.1668V14.5001C4.50065 14.2791 4.41285 14.0671 4.25657 13.9108C4.10029 13.7545 3.88833 13.6667 3.66732 13.6667ZM20.334 13.6667C20.113 13.6667 19.901 13.7545 19.7447 13.9108C19.5884 14.0671 19.5006 14.2791 19.5006 14.5001V16.1668C19.5006 16.3878 19.5884 16.5997 19.7447 16.756C19.901 16.9123 20.113 17.0001 20.334 17.0001C20.555 17.0001 20.767 16.9123 20.9232 16.756C21.0795 16.5997 21.1673 16.3878 21.1673 16.1668V14.5001C21.1673 14.2791 21.0795 14.0671 20.9232 13.9108C20.767 13.7545 20.555 13.6667 20.334 13.6667ZM16.1673 7.83342H12.834V6.76675C13.0859 6.62132 13.2953 6.41251 13.4415 6.16106C13.5877 5.9096 13.6656 5.62427 13.6673 5.33342C13.6673 4.89139 13.4917 4.46746 13.1792 4.1549C12.8666 3.84234 12.4427 3.66675 12.0007 3.66675C11.5586 3.66675 11.1347 3.84234 10.8221 4.1549C10.5096 4.46746 10.334 4.89139 10.334 5.33342C10.3357 5.62427 10.4136 5.9096 10.5598 6.16106C10.706 6.41251 10.9154 6.62132 11.1673 6.76675V7.83342H7.83398C7.17094 7.83342 6.53506 8.09681 6.06622 8.56565C5.59738 9.03449 5.33398 9.67037 5.33398 10.3334V17.8334C5.33398 18.4965 5.59738 19.1323 6.06622 19.6012C6.53506 20.07 7.17094 20.3334 7.83398 20.3334H16.1673C16.8304 20.3334 17.4662 20.07 17.9351 19.6012C18.4039 19.1323 18.6673 18.4965 18.6673 17.8334V10.3334C18.6673 9.67037 18.4039 9.03449 17.9351 8.56565C17.4662 8.09681 16.8304 7.83342 16.1673 7.83342ZM13.434 9.50008L13.0173 11.1667H10.984L10.5673 9.50008H13.434ZM17.0006 17.8334C17.0006 18.0544 16.9129 18.2664 16.7566 18.4227C16.6003 18.579 16.3883 18.6668 16.1673 18.6668H7.83398C7.61297 18.6668 7.40101 18.579 7.24473 18.4227C7.08845 18.2664 7.00065 18.0544 7.00065 17.8334V10.3334C7.00065 10.1124 7.08845 9.90044 7.24473 9.74416C7.40101 9.58788 7.61297 9.50008 7.83398 9.50008H8.85065L9.50065 12.2001C9.54628 12.385 9.65386 12.5487 9.80548 12.6639C9.9571 12.7791 10.1436 12.839 10.334 12.8334H13.6673C13.8577 12.839 14.0442 12.7791 14.1958 12.6639C14.3474 12.5487 14.455 12.385 14.5006 12.2001L15.1506 9.50008H16.1673C16.3883 9.50008 16.6003 9.58788 16.7566 9.74416C16.9129 9.90044 17.0006 10.1124 17.0006 10.3334V17.8334ZM14.5006 14.5001C14.3358 14.5001 14.1747 14.549 14.0377 14.6405C13.9006 14.7321 13.7938 14.8622 13.7308 15.0145C13.6677 15.1668 13.6512 15.3343 13.6833 15.496C13.7155 15.6576 13.7949 15.8061 13.9114 15.9227C14.0279 16.0392 14.1764 16.1186 14.3381 16.1507C14.4997 16.1829 14.6673 16.1664 14.8196 16.1033C14.9718 16.0402 15.102 15.9334 15.1935 15.7964C15.2851 15.6594 15.334 15.4982 15.334 15.3334C15.334 15.1124 15.2462 14.9004 15.0899 14.7442C14.9336 14.5879 14.7217 14.5001 14.5006 14.5001Z" fill="#232124"/>
</svg>
