<svg width="24" height="24" viewBox="0 0 24 24" fill="none" xmlns="http://www.w3.org/2000/svg">
<g clip-path="url(#clip0_2935_10383)">
<path d="M12 14.5C13.3807 14.5 14.5 13.3807 14.5 12C14.5 10.6193 13.3807 9.5 12 9.5C10.6193 9.5 9.5 10.6193 9.5 12C9.5 13.3807 10.6193 14.5 12 14.5Z" stroke="#232124" stroke-width="1.7" stroke-linecap="round" stroke-linejoin="round"/>
<path d="M18.1673 14.4999C18.0564 14.7513 18.0233 15.0301 18.0723 15.3004C18.1213 15.5707 18.2502 15.8202 18.4423 16.0166L18.4923 16.0666C18.6473 16.2214 18.7702 16.4052 18.8541 16.6075C18.938 16.8098 18.9811 17.0267 18.9811 17.2458C18.9811 17.4648 18.938 17.6817 18.8541 17.884C18.7702 18.0863 18.6473 18.2701 18.4923 18.4249C18.3375 18.5799 18.1537 18.7028 17.9514 18.7867C17.7491 18.8706 17.5322 18.9137 17.3132 18.9137C17.0941 18.9137 16.8772 18.8706 16.6749 18.7867C16.4726 18.7028 16.2888 18.5799 16.134 18.4249L16.084 18.3749C15.8876 18.1828 15.6381 18.0539 15.3678 18.0049C15.0975 17.9559 14.8187 17.989 14.5673 18.0999C14.3208 18.2056 14.1106 18.381 13.9626 18.6045C13.8145 18.8281 13.7351 19.0901 13.734 19.3583V19.4999C13.734 19.9419 13.5584 20.3659 13.2458 20.6784C12.9333 20.991 12.5093 21.1666 12.0673 21.1666C11.6253 21.1666 11.2014 20.991 10.8888 20.6784C10.5762 20.3659 10.4007 19.9419 10.4007 19.4999V19.4249C10.3942 19.1491 10.3049 18.8816 10.1444 18.6572C9.9839 18.4328 9.7596 18.2618 9.50065 18.1666C9.2493 18.0557 8.97049 18.0226 8.70016 18.0716C8.42983 18.1206 8.18038 18.2495 7.98398 18.4416L7.93398 18.4916C7.7792 18.6465 7.59538 18.7695 7.39305 18.8534C7.19072 18.9372 6.97384 18.9804 6.75482 18.9804C6.53579 18.9804 6.31891 18.9372 6.11658 18.8534C5.91425 18.7695 5.73044 18.6465 5.57565 18.4916C5.42069 18.3368 5.29776 18.153 5.21388 17.9507C5.13001 17.7483 5.08684 17.5314 5.08684 17.3124C5.08684 17.0934 5.13001 16.8765 5.21388 16.6742C5.29776 16.4719 5.42069 16.288 5.57565 16.1333L5.62565 16.0833C5.81777 15.8869 5.94664 15.6374 5.99565 15.3671C6.04467 15.0967 6.01158 14.8179 5.90065 14.5666C5.79502 14.3201 5.61961 14.1099 5.39604 13.9618C5.17246 13.8138 4.91047 13.7343 4.64232 13.7333H4.50065C4.05862 13.7333 3.6347 13.5577 3.32214 13.2451C3.00958 12.9325 2.83398 12.5086 2.83398 12.0666C2.83398 11.6246 3.00958 11.2006 3.32214 10.8881C3.6347 10.5755 4.05862 10.3999 4.50065 10.3999H4.57565C4.85148 10.3935 5.11899 10.3042 5.3434 10.1437C5.56781 9.98317 5.73875 9.75886 5.83398 9.49992C5.94491 9.24857 5.978 8.96976 5.92899 8.69943C5.87997 8.4291 5.7511 8.17965 5.55898 7.98325L5.50898 7.93325C5.35402 7.77846 5.23109 7.59465 5.14722 7.39232C5.06334 7.18999 5.02017 6.97311 5.02017 6.75409C5.02017 6.53506 5.06334 6.31818 5.14722 6.11585C5.23109 5.91352 5.35402 5.72971 5.50898 5.57492C5.66377 5.41996 5.84759 5.29703 6.04992 5.21315C6.25225 5.12928 6.46913 5.08611 6.68815 5.08611C6.90718 5.08611 7.12405 5.12928 7.32639 5.21315C7.52872 5.29703 7.71253 5.41996 7.86732 5.57492L7.91732 5.62492C8.11372 5.81703 8.36316 5.94591 8.63349 5.99492C8.90382 6.04394 9.18264 6.01085 9.43398 5.89992H9.50065C9.74713 5.79428 9.95733 5.61888 10.1054 5.39531C10.2535 5.17173 10.3329 4.90974 10.334 4.64159V4.49992C10.334 4.05789 10.5096 3.63397 10.8221 3.32141C11.1347 3.00885 11.5586 2.83325 12.0007 2.83325C12.4427 2.83325 12.8666 3.00885 13.1792 3.32141C13.4917 3.63397 13.6673 4.05789 13.6673 4.49992V4.57492C13.6684 4.84307 13.7478 5.10506 13.8959 5.32864C14.044 5.55222 14.2542 5.72762 14.5007 5.83325C14.752 5.94418 15.0308 5.97727 15.3011 5.92826C15.5715 5.87924 15.8209 5.75037 16.0173 5.55825L16.0673 5.50825C16.2221 5.35329 16.4059 5.23036 16.6083 5.14649C16.8106 5.06261 17.0275 5.01944 17.2465 5.01944C17.4655 5.01944 17.6824 5.06261 17.8847 5.14649C18.087 5.23036 18.2709 5.35329 18.4257 5.50825C18.5806 5.66304 18.7035 5.84685 18.7874 6.04918C18.8713 6.25152 18.9145 6.46839 18.9145 6.68742C18.9145 6.90644 18.8713 7.12332 18.7874 7.32565C18.7035 7.52798 18.5806 7.7118 18.4257 7.86659L18.3757 7.91659C18.1835 8.11298 18.0547 8.36243 18.0056 8.63276C17.9566 8.90309 17.9897 9.18191 18.1007 9.43325V9.49992C18.2063 9.74639 18.3817 9.9566 18.6053 10.1047C18.8288 10.2527 19.0908 10.3322 19.359 10.3333H19.5007C19.9427 10.3333 20.3666 10.5088 20.6792 10.8214C20.9917 11.134 21.1673 11.5579 21.1673 11.9999C21.1673 12.4419 20.9917 12.8659 20.6792 13.1784C20.3666 13.491 19.9427 13.6666 19.5007 13.6666H19.4257C19.1575 13.6677 18.8955 13.7471 18.6719 13.8952C18.4484 14.0432 18.273 14.2534 18.1673 14.4999V14.4999Z" stroke="#232124" stroke-width="1.7" stroke-linecap="round" stroke-linejoin="round"/>
</g>
<defs>
<clipPath id="clip0_2935_10383">
<rect width="20" height="20" fill="white" transform="translate(2 2)"/>
</clipPath>
</defs>
</svg>
