<svg width="24" height="24" viewBox="0 0 24 24" fill="none" xmlns="http://www.w3.org/2000/svg">
<path d="M7 3.66675L4.5 7.00008V18.6667C4.5 19.1088 4.67559 19.5327 4.98816 19.8453C5.30072 20.1578 5.72464 20.3334 6.16667 20.3334H17.8333C18.2754 20.3334 18.6993 20.1578 19.0118 19.8453C19.3244 19.5327 19.5 19.1088 19.5 18.6667V7.00008L17 3.66675H7Z" stroke="#232124" stroke-width="1.7" stroke-linecap="round" stroke-linejoin="round"/>
<path d="M15.3327 10.3333C15.3327 11.2173 14.9815 12.0652 14.3564 12.6903C13.7313 13.3154 12.8834 13.6666 11.9993 13.6666C11.1153 13.6666 10.2674 13.3154 9.64233 12.6903C9.0172 12.0652 8.66602 11.2173 8.66602 10.3333" stroke="#232124" stroke-width="1.7" stroke-linecap="round" stroke-linejoin="round"/>
<path d="M4.5 7H19.5" stroke="#232124" stroke-width="1.7" stroke-linecap="round" stroke-linejoin="round"/>
</svg>
