<svg width="24" height="24" viewBox="0 0 24 24" fill="none" xmlns="http://www.w3.org/2000/svg">
<g clip-path="url(#clip0_2935_10380)">
<path d="M19.6747 15.2417C19.1445 16.4955 18.3153 17.6002 17.2596 18.4595C16.2038 19.3187 14.9537 19.9063 13.6184 20.1707C12.2831 20.4352 10.9034 20.3685 9.59981 19.9766C8.29624 19.5846 7.10854 18.8793 6.14053 17.9223C5.17253 16.9653 4.4537 15.7857 4.04688 14.4867C3.64006 13.1877 3.55765 11.8088 3.80685 10.4706C4.05605 9.13238 4.62926 7.87559 5.47639 6.81009C6.32351 5.74459 7.41875 4.90283 8.66635 4.3584" stroke="#232124" stroke-width="1.7" stroke-linecap="round" stroke-linejoin="round"/>
<path d="M20.3333 12.0001C20.3333 10.9057 20.1178 9.8221 19.699 8.81105C19.2802 7.80001 18.6664 6.88135 17.8926 6.10752C17.1187 5.3337 16.2001 4.71987 15.189 4.30109C14.178 3.8823 13.0943 3.66675 12 3.66675V12.0001H20.3333Z" stroke="#232124" stroke-width="1.7" stroke-linecap="round" stroke-linejoin="round"/>
</g>
<defs>
<clipPath id="clip0_2935_10380">
<rect width="20" height="20" fill="white" transform="translate(2 2)"/>
</clipPath>
</defs>
</svg>
