<svg width="24" height="24" viewBox="0 0 24 24" fill="none" xmlns="http://www.w3.org/2000/svg">
<path d="M3.3749 10.749C8.74359 8.20876 12.3236 6.5341 14.1148 5.72499C19.2292 3.41482 20.2919 3.01352 20.9846 3.00013C21.1369 2.99736 21.4776 3.03836 21.6982 3.23279C21.8845 3.39697 21.9358 3.61876 21.9603 3.77442C21.9848 3.93008 22.0154 4.28467 21.9911 4.56174C21.714 7.72419 20.5147 15.3986 19.9046 18.9406C19.6465 20.4394 19.1382 20.9419 18.6461 20.9911C17.5766 21.098 16.7645 20.2235 15.7287 19.4861C14.1078 18.3323 13.1921 17.614 11.6188 16.488C9.80053 15.1868 10.9792 14.4716 12.0154 13.3028C12.2866 12.9969 16.9987 8.34235 17.0899 7.92011C17.1013 7.8673 17.1119 7.67045 17.0042 7.56651C16.8965 7.46257 16.7376 7.49812 16.6229 7.52638C16.4604 7.56645 13.871 9.42509 8.85486 13.1023C8.11988 13.6504 7.45416 13.9174 6.8577 13.9035C6.20015 13.888 4.93528 13.4997 3.99498 13.1678C2.84166 12.7606 1.92503 12.5454 2.00485 11.8539C2.04642 11.4938 2.5031 11.1255 3.3749 10.749Z" fill="#232124"/>
</svg>
