<svg width="24" height="24" viewBox="0 0 24 24" fill="none" xmlns="http://www.w3.org/2000/svg">
<path fill-rule="evenodd" clip-rule="evenodd" d="M21.5411 6.81253C21.6802 6.34421 21.5411 6 20.8794 6H18.6914C18.135 6 17.8787 6.29732 17.7396 6.62526C17.7396 6.62526 16.6269 9.36521 15.0505 11.145C14.5406 11.6602 14.3088 11.8239 14.0306 11.8239C13.8915 11.8239 13.6902 11.6602 13.6902 11.1919V6.81253C13.6902 6.25042 13.5288 6 13.0651 6H9.62678C9.2792 6 9.07009 6.26084 9.07009 6.50811C9.07009 7.041 9.85808 7.16384 9.93935 8.66258V11.9179C9.93935 12.6316 9.81182 12.7611 9.53363 12.7611C8.7919 12.7611 6.98773 10.0086 5.91748 6.85942C5.70774 6.24726 5.49738 6 4.93819 6H2.75018C2.12503 6 2 6.29732 2 6.62526C2 7.21074 2.74189 10.1147 5.45393 13.9554C7.26217 16.578 9.80932 18 12.1274 18C13.5183 18 13.6902 17.6842 13.6902 17.1403V15.1579C13.6902 14.5263 13.822 14.4003 14.2622 14.4003C14.587 14.4003 15.1432 14.5642 16.4415 15.8288C17.925 17.3274 18.1694 18 19.004 18H21.192C21.8171 18 22.1297 17.6842 21.9493 17.061C21.7521 16.4398 21.0438 15.5389 20.1039 14.4706C19.594 13.8616 18.8289 13.2058 18.5973 12.8781C18.2727 12.4565 18.3654 12.2692 18.5973 11.8947C18.5973 11.8947 21.2629 8.10079 21.5411 6.81268V6.81253Z" fill="#232124"/>
</svg>
