<svg width="24" height="24" viewBox="0 0 24 24" fill="none" xmlns="http://www.w3.org/2000/svg">
<path d="M17.8327 7.83333H16.9993V7C16.9993 6.33696 16.736 5.70107 16.2671 5.23223C15.7983 4.76339 15.1624 4.5 14.4993 4.5H6.16602C5.50297 4.5 4.86709 4.76339 4.39825 5.23223C3.92941 5.70107 3.66602 6.33696 3.66602 7V7V17C3.66602 17.663 3.92941 18.2989 4.39825 18.7678C4.86709 19.2366 5.50297 19.5 6.16602 19.5H17.8327C18.4957 19.5 19.1316 19.2366 19.6005 18.7678C20.0693 18.2989 20.3327 17.663 20.3327 17V10.3333C20.3327 9.67029 20.0693 9.03441 19.6005 8.56557C19.1316 8.09673 18.4957 7.83333 17.8327 7.83333ZM6.16602 6.16667H14.4993C14.7204 6.16667 14.9323 6.25446 15.0886 6.41074C15.2449 6.56702 15.3327 6.77899 15.3327 7V7.83333H6.16602C5.945 7.83333 5.73304 7.74554 5.57676 7.58926C5.42048 7.43298 5.33268 7.22101 5.33268 7C5.33268 6.77899 5.42048 6.56702 5.57676 6.41074C5.73304 6.25446 5.945 6.16667 6.16602 6.16667V6.16667ZM18.666 14.5H17.8327C17.6117 14.5 17.3997 14.4122 17.2434 14.2559C17.0871 14.0996 16.9993 13.8877 16.9993 13.6667C16.9993 13.4457 17.0871 13.2337 17.2434 13.0774C17.3997 12.9211 17.6117 12.8333 17.8327 12.8333H18.666V14.5ZM18.666 11.1667H17.8327C17.1696 11.1667 16.5338 11.4301 16.0649 11.8989C15.5961 12.3677 15.3327 13.0036 15.3327 13.6667C15.3327 14.3297 15.5961 14.9656 16.0649 15.4344C16.5338 15.9033 17.1696 16.1667 17.8327 16.1667H18.666V17C18.666 17.221 18.5782 17.433 18.4219 17.5893C18.2657 17.7455 18.0537 17.8333 17.8327 17.8333H6.16602C5.945 17.8333 5.73304 17.7455 5.57676 17.5893C5.42048 17.433 5.33268 17.221 5.33268 17V9.35833C5.60041 9.45251 5.88221 9.50042 6.16602 9.5H17.8327C18.0537 9.5 18.2657 9.5878 18.4219 9.74408C18.5782 9.90036 18.666 10.1123 18.666 10.3333V11.1667Z" fill="#232124"/>
</svg>
