<svg width="16" height="16" viewBox="0 0 16 16" fill="none" xmlns="http://www.w3.org/2000/svg">
<g clip-path="url(#clip0_2935_11002)">
<path d="M1.01238 15.0484L4.69352 14.1074C5.727 14.6728 6.8734 14.9365 8.01907 14.9365C11.8995 14.9365 15.05 11.7736 15.05 7.92432C15.05 6.05718 14.3201 4.30394 13.0137 3.00801C11.7069 1.67385 9.90106 0.95 8.05722 0.95C4.13899 0.95 0.988003 4.11259 1.02629 7.96241C1.02634 9.1759 1.36853 10.3506 1.93829 11.4114L0.951801 14.9867L0.928875 15.0698L1.01238 15.0484ZM5.14573 12.8761L5.14582 12.876L5.14211 12.8741L4.91322 12.7606L4.89658 12.7524L4.87858 12.757L2.74868 13.3033L3.29901 11.229L3.30482 11.2071L3.29218 11.1883L3.14006 10.962C1.47669 8.29884 2.2711 4.77387 4.99322 3.12384C7.7172 1.47268 11.234 2.26129 12.8975 4.96136C14.5618 7.66264 13.7672 11.1504 11.0449 12.8005L11.0449 12.8005L11.0437 12.8013C10.1748 13.3633 9.11622 13.6635 8.05722 13.6635C7.03561 13.6635 6.0147 13.4008 5.14573 12.8761ZM11.4364 9.46872L11.4364 9.46869L11.4347 9.46793L11.0151 9.27874L11.0145 9.27846L10.9946 9.32428L11.0144 9.27845L11.0144 9.27845L11.0143 9.27841L11.014 9.27827L11.0127 9.2777L11.0076 9.27546L10.9876 9.26675L10.9134 9.23421C10.8503 9.20646 10.7622 9.1675 10.6622 9.12263C10.462 9.03281 10.2148 8.91962 10.0249 8.82548L10.0144 8.82027H10.0027C9.99764 8.82027 9.98966 8.81744 9.96772 8.80656C9.96678 8.80609 9.9658 8.8056 9.96478 8.80509C9.94802 8.79672 9.91944 8.78243 9.88828 8.78243C9.76211 8.78243 9.67697 8.82466 9.60069 8.8625L9.59904 8.86331L9.59179 8.86691L9.58604 8.87261L9.62125 8.90811L9.58601 8.87264L9.58597 8.87268L9.5859 8.87275L9.58576 8.87289L9.58546 8.8732L9.5847 8.87397L9.58216 8.87665L9.57009 8.8897C9.55799 8.9029 9.53639 8.9267 9.49819 8.96933C9.42176 9.05461 9.27861 9.21554 9.01155 9.51828L9.01029 9.51716L9.0044 9.52885C8.97599 9.5852 8.91865 9.61486 8.85831 9.61486H8.82016C8.81313 9.61486 8.79316 9.60985 8.76608 9.59642C8.74056 9.58377 8.7169 9.56769 8.70279 9.55369L8.69552 9.54649L8.68602 9.54272L8.49636 9.46747C8.08015 9.27973 7.70491 9.05579 7.40578 8.7591C7.36566 8.7193 7.31619 8.68004 7.26945 8.64296L7.26814 8.64191C7.21989 8.60363 7.17455 8.56758 7.13875 8.53207C6.87332 8.26879 6.61029 7.97021 6.4229 7.63598L6.38525 7.56128L6.38159 7.55401L6.37581 7.54829C6.36372 7.53629 6.35728 7.52457 6.34882 7.5036C6.34694 7.49893 6.34493 7.4937 6.34272 7.48796C6.33589 7.47019 6.32714 7.44746 6.31431 7.42081C6.31437 7.38683 6.31483 7.35672 6.31856 7.33078C6.32281 7.30129 6.33021 7.28614 6.33766 7.27874L6.33788 7.27896L6.34137 7.27463L6.34137 7.27463L6.34139 7.27461L6.34146 7.27452L6.34178 7.27413L6.34304 7.27257L6.34799 7.26648L6.36665 7.24373C6.38261 7.22438 6.40508 7.1974 6.43109 7.16691C6.48335 7.10565 6.54901 7.03128 6.60469 6.97604C6.64725 6.93383 6.67857 6.88205 6.7062 6.83635L6.70763 6.83399C6.73687 6.78566 6.76242 6.74391 6.79543 6.71117L6.79613 6.71188L6.80172 6.70357C6.88254 6.58331 6.92805 6.4172 6.88488 6.28433C6.87346 6.23081 6.83624 6.12859 6.78761 6.00627C6.73727 5.87966 6.67267 5.7266 6.60581 5.57265C6.47224 5.26509 6.32871 4.95182 6.27081 4.83695L6.27116 4.83678L6.26766 4.83157C6.2264 4.77019 6.18375 4.72733 6.13453 4.69478C6.08597 4.66267 6.03322 4.6421 5.97482 4.6228L5.96718 4.62027H5.95913H5.84469H5.84424H5.84379H5.84334H5.84289H5.84244H5.84199H5.84154H5.84108H5.84063H5.84017H5.83972H5.83926H5.8388H5.83834H5.83788H5.83742H5.83696H5.8365H5.83604H5.83557H5.83511H5.83464H5.83418H5.83371H5.83324H5.83277H5.8323H5.83183H5.83136H5.83089H5.83042H5.82994H5.82947H5.82899H5.82852H5.82804H5.82756H5.82708H5.8266H5.82612H5.82564H5.82516H5.82468H5.8242H5.82371H5.82323H5.82274H5.82225H5.82177H5.82128H5.82079H5.8203H5.81981H5.81932H5.81883H5.81833H5.81784H5.81735H5.81685H5.81635H5.81586H5.81536H5.81486H5.81436H5.81386H5.81336H5.81286H5.81236H5.81186H5.81135H5.81085H5.81034H5.80984H5.80933H5.80882H5.80831H5.80781H5.8073H5.80679H5.80628H5.80576H5.80525H5.80474H5.80422H5.80371H5.80319H5.80268H5.80216H5.80164H5.80112H5.80061H5.80009H5.79956H5.79904H5.79852H5.798H5.79748H5.79695H5.79643H5.7959H5.79538H5.79485H5.79432H5.79379H5.79326H5.79273H5.7922H5.79167H5.79114H5.79061H5.79008H5.78954H5.78901H5.78847H5.78794H5.7874H5.78686H5.78632H5.78579H5.78525H5.78471H5.78417H5.78363H5.78308H5.78254H5.782H5.78145H5.78091H5.78036H5.77982H5.77927H5.77872H5.77818H5.77763H5.77708H5.77653H5.77598H5.77543H5.77488H5.77432H5.77377H5.77322H5.77266H5.77211H5.77155H5.771H5.77044H5.76988H5.76933H5.76877H5.76821H5.76765H5.76709H5.76653H5.76597H5.7654H5.76484H5.76428H5.76371H5.76315H5.76258H5.76202H5.76145H5.76088H5.76032H5.75975H5.75918H5.75861H5.75804H5.75747H5.7569H5.75633H5.75575H5.75518H5.75461H5.75403H5.75346H5.75288H5.75231H5.75173H5.75116H5.75058H5.75H5.74942H5.74884H5.74826H5.74768H5.7471H5.74652H5.74594H5.74536H5.74477H5.74419H5.74361H5.74302H5.74244H5.74185H5.74126H5.74068H5.74009H5.7395H5.73891H5.73833H5.73774H5.73715H5.73656H5.73596H5.73537H5.73478H5.73419H5.7336H5.733H5.73241H5.73181H5.73122H5.73062H5.73003H5.72943H5.72883H5.72824H5.72764H5.72704H5.72644H5.72584H5.72524H5.72464H5.72404H5.72344H5.72283H5.72223H5.72163H5.72103H5.72042H5.71982H5.71921H5.71861H5.718H5.71739H5.71679H5.71618H5.71557H5.71496H5.71436H5.71375H5.71314H5.71253H5.71192H5.71131H5.7107H5.71008H5.70947H5.70886H5.70825H5.70763H5.70702H5.7064H5.70579H5.70517H5.70456H5.70394H5.70332H5.70271H5.70209H5.70147H5.70085H5.70023H5.69962H5.699H5.69838H5.69776H5.69713H5.69651H5.69589H5.69527H5.69465H5.69402H5.6934H5.69278H5.69215H5.69153H5.6909H5.69028H5.68965H5.68903H5.6884H5.68777H5.68715H5.68652H5.68589H5.68526H5.68463H5.68401H5.68338H5.68275H5.68212H5.68149H5.68085H5.68022H5.67959H5.67896H5.67833H5.67769H5.67706H5.67643H5.67579H5.67516H5.67452H5.67389H5.67325H5.67262H5.67198H5.67135H5.67071H5.67007H5.66944H5.6688H5.66816H5.66752H5.66688H5.66624H5.66561H5.66497H5.66433H5.66369H5.66304H5.6624H5.66176H5.66112H5.66048H5.65984H5.65919H5.65855H5.65791H5.65727H5.65662H5.65598H5.65533H5.65469H5.65404H5.6534H5.65275H5.65211H5.65146H5.65082H5.65017H5.64952H5.64887H5.64823H5.64758H5.64693H5.64628H5.64563H5.64499H5.64434H5.64369H5.64304H5.64239H5.64174H5.64109H5.64044H5.63978H5.63913H5.63848H5.63783H5.63718H5.63653H5.63587H5.63522H5.63457H5.63391H5.63326H5.63261H5.63195H5.6313H5.63064H5.62999H5.62933H5.62868H5.62802H5.62737H5.62671H5.62606H5.6254H5.62474H5.62409H5.62343H5.62277H5.62212H5.62146H5.6208H5.62014H5.61948H5.61883H5.61817H5.61751H5.61685H5.61619H5.61553H5.61487H5.61421H5.61355H5.61289H5.61223H5.61157H5.61091H5.61025H5.60959H5.60893H5.60827H5.6076H5.60694H5.60628H5.60562H5.60496H5.60429H5.60363H5.60297H5.60231H5.60164H5.60098H5.60032H5.59965H5.59899H5.59832H5.59766H5.597H5.59633H5.59567H5.595H5.59434H5.59367H5.59301H5.59234H5.59168H5.59101H5.59035H5.58968H5.58902H5.58835H5.58768H5.58702H5.58635H5.58568H5.58502H5.58435H5.58368H5.58302H5.58235H5.58168H5.58102H5.58035H5.57968H5.57901H5.57835H5.57768H5.57701H5.57634H5.57567H5.57501H5.57434H5.57367H5.573H5.57233H5.57166H5.571H5.57033H5.56966H5.56899H5.56832H5.56765H5.56698H5.56631H5.56564H5.56497H5.56431H5.56364H5.56297H5.5623H5.56163H5.56096H5.56029H5.55962H5.55895H5.55828H5.55761H5.55694H5.55627H5.5556H5.55493H5.55426H5.55359H5.55292H5.55225H5.55158H5.55091H5.55024H5.54957H5.5489H5.54823H5.54756H5.54689H5.54621H5.54554H5.54487H5.5442H5.54353H5.54286H5.54219H5.54152H5.54085H5.54018H5.53951C5.4952 4.62027 5.452 4.63099 5.41553 4.64004L5.41303 4.64066C5.37373 4.65041 5.3416 4.65811 5.31063 4.65811H5.29004L5.27542 4.67261L5.2428 4.70496C5.20322 4.72569 5.16472 4.75433 5.13014 4.78006L5.12819 4.7815C5.08914 4.81056 5.05473 4.83596 5.02138 4.8525L5.01413 4.8561L5.00839 4.8618C4.96771 4.90215 4.93729 4.94237 4.90904 4.97974L4.90835 4.98065C4.87958 5.0187 4.85294 5.05383 4.81765 5.08883L4.81738 5.08855L4.81352 5.09347C4.54016 5.44207 4.38324 5.86899 4.38324 6.2973C4.38324 6.60737 4.46112 6.9161 4.57725 7.18547L4.61473 7.29701L4.61438 7.29713L4.61701 7.30263C4.96277 8.02666 5.42401 8.67492 6.03893 9.24688L6.19095 9.39766C6.23174 9.43813 6.27338 9.47466 6.31196 9.50851C6.32849 9.52301 6.34446 9.53703 6.35957 9.55065C6.41117 9.59718 6.45518 9.64119 6.48984 9.69276L6.48822 9.69384L6.49895 9.70296C7.30504 10.3883 8.22677 10.8838 9.26388 11.1507C9.32498 11.1707 9.39475 11.1806 9.45911 11.1897L9.46165 11.19C9.52953 11.1997 9.59155 11.2086 9.64371 11.2259L9.65135 11.2284H9.6594H9.66007H9.66074H9.66142H9.66209H9.66276H9.66344H9.66412H9.66479H9.66547H9.66615H9.66683H9.66751H9.66819H9.66887H9.66956H9.67024H9.67092H9.67161H9.6723H9.67298H9.67367H9.67436H9.67505H9.67574H9.67643H9.67712H9.67781H9.67851H9.6792H9.6799H9.68059H9.68129H9.68198H9.68268H9.68338H9.68408H9.68478H9.68548H9.68618H9.68689H9.68759H9.68829H9.689H9.6897H9.69041H9.69112H9.69182H9.69253H9.69324H9.69395H9.69466H9.69537H9.69608H9.69679H9.69751H9.69822H9.69894H9.69965H9.70037H9.70108H9.7018H9.70252H9.70324H9.70396H9.70468H9.7054H9.70612H9.70684H9.70756H9.70828H9.70901H9.70973H9.71046H9.71118H9.71191H9.71264H9.71336H9.71409H9.71482H9.71555H9.71628H9.71701H9.71774H9.71847H9.7192H9.71994H9.72067H9.7214H9.72214H9.72287H9.72361H9.72434H9.72508H9.72582H9.72656H9.72729H9.72803H9.72877H9.72951H9.73025H9.731H9.73174H9.73248H9.73322H9.73396H9.73471H9.73545H9.7362H9.73694H9.73769H9.73843H9.73918H9.73993H9.74068H9.74142H9.74217H9.74292H9.74367H9.74442H9.74517H9.74592H9.74667H9.74743H9.74818H9.74893H9.74969H9.75044H9.75119H9.75195H9.7527H9.75346H9.75421H9.75497H9.75573H9.75648H9.75724H9.758H9.75876H9.75952H9.76028H9.76103H9.7618H9.76256H9.76332H9.76408H9.76484H9.7656H9.76636H9.76713H9.76789H9.76865H9.76942H9.77018H9.77094H9.77171H9.77247H9.77324H9.774H9.77477H9.77554H9.7763H9.77707H9.77784H9.77861H9.77937H9.78014H9.78091H9.78168H9.78245H9.78322H9.78399H9.78476H9.78553H9.7863H9.78707H9.78784H9.78861H9.78939H9.79016H9.79093H9.7917H9.79248H9.79325H9.79402H9.7948H9.79557H9.79634H9.79712H9.79789H9.79867H9.79944H9.80022H9.80099H9.80177H9.80254H9.80332H9.8041H9.80487H9.80565H9.80643H9.8072H9.80798H9.80876H9.80954H9.81031H9.81109H9.81187H9.81265H9.81343H9.81421H9.81498H9.81576H9.81654H9.81732H9.8181H9.81888H9.81966H9.82044H9.82122H9.822H9.82278H9.82356H9.82434H9.82512H9.8259H9.82668H9.82746H9.82824H9.82903H9.82981H9.83059H9.83137H9.83215H9.83293H9.83371H9.83449H9.83528H9.83606H9.83684H9.83762H9.8384H9.83919H9.83997H9.84075H9.84153H9.84231H9.8431H9.84388H9.84466H9.84544H9.84622H9.84701H9.84779H9.84857H9.84935H9.85014H9.85092H9.8517H9.85248H9.85327H9.85405H9.85483H9.85561H9.85639H9.85718H9.85796H9.85874H9.85952H9.86031H9.86109H9.86187H9.86265H9.86343H9.86421H9.865H9.86578H9.86656H9.86734H9.86812H9.8689H9.86969H9.87047H9.87125H9.87203H9.87281H9.87359H9.87437H9.87515H9.87593H9.87671H9.87749H9.87827H9.87905H9.87983H9.88061H9.88139H9.88217H9.88295H9.88373H9.88451H9.88529H9.88607H9.88685H9.88762H9.8884H9.88918H9.88996H9.89074H9.89151H9.89229H9.89307H9.89385H9.89462H9.8954H9.89618H9.89695H9.89773H9.8985H9.89928H9.90006H9.90083H9.90161H9.90238H9.90316H9.90393H9.9047H9.90548H9.90625H9.90702H9.9078H9.90857H9.90934H9.91012H9.91089H9.91166H9.91243H9.9132H9.91397H9.91474H9.91551H9.91628H9.91705H9.91782H9.91859H9.91936H9.92013H9.9209H9.92167H9.92243H9.9232H9.92397H9.92474H9.9255H9.92627H9.92703H9.9278H9.92856H9.92933H9.93009H9.93086H9.93162H9.93238H9.93315H9.93391H9.93467H9.93543H9.9362H9.93696H9.93772H9.93848H9.93924H9.94H9.94076H9.94152H9.94227H9.94303H9.94379H9.94455H9.9453H9.94606H9.94682H9.94757H9.94833H9.94908H9.94983H9.95059H9.95134H9.95209H9.95285H9.9536H9.95435H9.9551H9.95585H9.9566H9.95735H9.9581H9.95885H9.9596H9.96035H9.96109H9.96184H9.96259H9.96333H9.96408H9.96482H9.96556H9.96631H9.96705H9.96779H9.96854H9.96928H9.97002H9.97076H9.9715H9.97224H9.97298H9.97372H9.97445H9.97519H9.97593H9.97666H9.9774H9.97814H9.97887H9.9796H9.98034H9.98107H9.9818H9.98253H9.98326H9.98399H9.98472H9.98545H9.98618H9.98691H9.98764H9.98836H9.98909H9.98982H9.99054H9.99127H9.99199H9.99271H9.99343H9.99416H9.99488H9.9956H9.99632H9.99704H9.99776H9.99847H9.99919H9.99991H10.0006H10.0013H10.0021H10.0028H10.0035H10.0042H10.0049H10.0056H10.0063H10.007H10.0077H10.0085H10.0092H10.0099H10.0106H10.0113H10.012H10.0127H10.0134H10.0141H10.0148H10.0155H10.0162H10.0169H10.0176H10.0183H10.019H10.0197H10.0204H10.0211H10.0218H10.0225H10.0232H10.0238H10.0245H10.0252H10.0259H10.0266H10.0273H10.028H10.0287H10.0293H10.03H10.0307H10.0314H10.0321H10.0328H10.0334H10.0341H10.0348H10.0355H10.0362H10.0368H10.0375H10.0382H10.0389H10.0395H10.0402H10.0409C10.2422 11.2284 10.4789 11.1494 10.6353 11.0718L10.6355 11.0722L10.6407 11.0687C10.687 11.0381 10.7259 11.0211 10.7646 11.0043C10.7701 11.0019 10.7756 10.9995 10.7811 10.9971C10.8255 10.9775 10.8705 10.9556 10.9153 10.9112L10.9916 10.8355C11.0269 10.8005 11.0623 10.7741 11.1007 10.7455L11.1016 10.7448C11.1393 10.7168 11.1798 10.6866 11.2205 10.6463L11.2245 10.6423C11.2978 10.5697 11.3788 10.4893 11.4207 10.4063C11.5 10.2489 11.5393 10.0542 11.5768 9.86809L11.5776 9.86394L11.5786 9.86414V9.85405V9.85361V9.85316V9.85272V9.85227V9.85183V9.85138V9.85093V9.85048V9.85003V9.84958V9.84912V9.84867V9.84822V9.84776V9.84731V9.84685V9.84639V9.84593V9.84548V9.84502V9.84456V9.8441V9.84363V9.84317V9.84271V9.84224V9.84178V9.84131V9.84084V9.84038V9.83991V9.83944V9.83897V9.8385V9.83803V9.83756V9.83708V9.83661V9.83614V9.83566V9.83519V9.83471V9.83423V9.83375V9.83327V9.8328V9.83232V9.83183V9.83135V9.83087V9.83039V9.8299V9.82942V9.82894V9.82845V9.82796V9.82748V9.82699V9.8265V9.82601V9.82552V9.82503V9.82454V9.82405V9.82356V9.82306V9.82257V9.82208V9.82158V9.82109V9.82059V9.82009V9.8196V9.8191V9.8186V9.8181V9.8176V9.8171V9.8166V9.8161V9.8156V9.81509V9.81459V9.81409V9.81358V9.81308V9.81257V9.81206V9.81156V9.81105V9.81054V9.81003V9.80952V9.80902V9.80851V9.80799V9.80748V9.80697V9.80646V9.80595V9.80543V9.80492V9.8044V9.80389V9.80337V9.80286V9.80234V9.80182V9.80131V9.80079V9.80027V9.79975V9.79923V9.79871V9.79819V9.79767V9.79715V9.79663V9.79611V9.79558V9.79506V9.79454V9.79401V9.79349V9.79296V9.79244V9.79191V9.79138V9.79086V9.79033V9.7898V9.78928V9.78875V9.78822V9.78769V9.78716V9.78663V9.7861V9.78557V9.78504V9.7845V9.78397V9.78344V9.78291V9.78237V9.78184V9.78131V9.78077V9.78024V9.7797V9.77917V9.77863V9.77809V9.77756V9.77702V9.77648V9.77595V9.77541V9.77487V9.77433V9.77379V9.77325V9.77271V9.77217V9.77164V9.77109V9.77055V9.77001V9.76947V9.76893V9.76839V9.76785V9.7673V9.76676V9.76622V9.76567V9.76513V9.76459V9.76404V9.7635V9.76295V9.76241V9.76186V9.76132V9.76077V9.76023V9.75968V9.75913V9.75859V9.75804V9.75749V9.75695V9.7564V9.75585V9.7553V9.75476V9.75421V9.75366V9.75311V9.75256V9.75201V9.75146V9.75091V9.75036V9.74981V9.74926V9.74871V9.74816V9.74761V9.74706V9.74651V9.74596V9.74541V9.74486V9.74431V9.74376V9.74321V9.74265V9.7421V9.74155V9.741V9.74044V9.73989V9.73934V9.73879V9.73823V9.73768V9.73713V9.73658V9.73602V9.73547V9.73492V9.73436V9.73381V9.73326V9.7327V9.73215V9.7316V9.73104V9.73049V9.72993V9.72938V9.72883V9.72827V9.72772V9.72716V9.72661V9.72606V9.7255V9.72495V9.72439V9.72384V9.72328V9.72273V9.72218V9.72162V9.72107V9.72051V9.71996V9.71941V9.71885V9.7183V9.71774V9.71719V9.71663V9.71608V9.71553V9.71497V9.71442V9.71386V9.71331V9.71276V9.7122V9.71165V9.71109V9.71054V9.70999V9.70943V9.70888V9.70833V9.70777V9.70722V9.70667V9.70611V9.70556V9.70501V9.70446V9.7039V9.70335V9.7028V9.70225V9.70169V9.70114V9.70059V9.70004V9.69949V9.69894V9.69838V9.69783V9.69728V9.69673V9.69618V9.69563V9.69508V9.69453V9.69398V9.69343V9.69288V9.69233V9.69178V9.69123V9.69068V9.69013V9.68958V9.68904V9.68849V9.68794V9.68739V9.68684V9.6863V9.68575V9.6852V9.68466V9.68411V9.68356V9.68302V9.68247V9.68193V9.68138V9.68083V9.68029V9.67975V9.6792V9.67866V9.67811V9.67757V9.67703V9.67648V9.67594V9.6754V9.67486V9.67431V9.67377V9.67323V9.67269V9.67215V9.67161V9.67107V9.67053V9.66999V9.66945V9.66891V9.66837V9.66784V9.6673V9.66676V9.66622V9.66569V9.66515V9.66461V9.66408V9.66354V9.66301V9.66247V9.66194V9.6614V9.66087V9.66034V9.6598V9.65927V9.65874V9.65821V9.65768V9.65715V9.65662V9.65609V9.65555V9.65503V9.6545V9.65397V9.65344V9.65291V9.65239V9.65186V9.65133V9.65081V9.65028V9.64976V9.64923V9.64871V9.64818V9.64766V9.64714V9.64662V9.64609V9.64557V9.64505V9.64453V9.64401V9.64349V9.64297V9.64245V9.64194V9.64142V9.6409V9.64039V9.63987V9.63935V9.63884V9.63832V9.63781V9.6373V9.63678V9.63627V9.63576V9.63525V9.63474V9.63423V9.63372V9.63321V9.6327V9.63219V9.63169V9.63118V9.63067V9.63017V9.62966V9.62916V9.62865V9.62815V9.62765V9.62715V9.62664V9.62614V9.62564V9.62514V9.62464V9.62415V9.62365V9.62315V9.62265V9.62216V9.62166V9.62117V9.62067V9.62018V9.61969V9.61919V9.6187V9.61821V9.61772V9.61723V9.61674V9.61625V9.61577V9.61528V9.61479V9.61431V9.61382V9.61334V9.61286V9.61237V9.61189V9.61141V9.61093V9.61045V9.60997V9.60949V9.60901V9.60854V9.60806V9.60758V9.60711V9.60663V9.60616V9.60569V9.60522V9.60474V9.60427V9.6038V9.60334V9.60287V9.6024V9.60193V9.60147V9.601V9.60054V9.60007V9.59961V9.59915V9.59869V9.59823V9.59777V9.59731V9.59685V9.59639V9.59594V9.59548V9.59503V9.59457V9.59412V9.59367V9.59322V9.59276V9.59231V9.59187V9.59142V9.59097V9.59052V9.59008V9.58963V9.58919V9.56836L11.5638 9.55369L11.5286 9.58919L11.5638 9.55367L11.5638 9.55365L11.5637 9.55362L11.5637 9.55353L11.5634 9.55331L11.5628 9.5527L11.5609 9.55087L11.5542 9.54493C11.5486 9.54002 11.5404 9.53331 11.5298 9.52542C11.5086 9.50965 11.4775 9.48911 11.4364 9.46872Z" fill="#232124" stroke="#232124" stroke-width="0.1"/>
</g>
<defs>
<clipPath id="clip0_2935_11002">
<rect width="16" height="16" fill="white"/>
</clipPath>
</defs>
</svg>
