<svg width="104" height="32" viewBox="0 0 104 32" fill="none" xmlns="http://www.w3.org/2000/svg">
<g clip-path="url(#clip0_3336_2134)">
<path d="M6.45614 24.714C4.3721 24.714 2.79498 24.3291 1.7248 23.5593C0.654611 22.7708 0.0256424 21.7381 -0.162109 20.4614L3.41456 19.5602C3.52721 20.1047 3.837 20.5459 4.34393 20.8839C4.85086 21.2031 5.54555 21.3626 6.42798 21.3626C7.83612 21.3626 8.54019 21.0341 8.54019 20.3769C8.54019 20.039 8.33366 19.7855 7.92061 19.6166C7.52633 19.4288 6.87858 19.2504 5.97737 19.0815C4.28761 18.7811 2.97335 18.3023 2.03459 17.6452C1.1146 16.988 0.654611 15.9836 0.654611 14.6317C0.654611 13.7118 0.917463 12.895 1.44317 12.1816C1.96887 11.4681 2.69172 10.9049 3.6117 10.4918C4.53169 10.0788 5.59248 9.87224 6.7941 9.87224C8.35244 9.87224 9.63853 10.2384 10.6524 10.9706C11.685 11.7028 12.2952 12.604 12.483 13.6742L8.96263 14.6317C8.8312 14.2187 8.56835 13.8807 8.17407 13.6179C7.79857 13.355 7.28225 13.2236 6.62512 13.2236C6.00554 13.2236 5.54555 13.3269 5.24514 13.5334C4.96351 13.7399 4.8227 13.984 4.8227 14.2656C4.8227 14.6036 5.01984 14.8758 5.41412 15.0823C5.8084 15.2701 6.50308 15.4672 7.49816 15.6738C8.51202 15.8615 9.40384 16.1244 10.1736 16.4623C10.9622 16.7815 11.5724 17.2321 12.0042 17.8141C12.4548 18.3774 12.6801 19.1472 12.6801 20.1235C12.6801 21.0435 12.4079 21.8508 11.8634 22.5455C11.3377 23.2402 10.6055 23.7753 9.6667 24.1508C8.72794 24.5263 7.65775 24.714 6.45614 24.714Z" fill="#232124"/>
<path d="M19.9031 24.714C18.2508 24.714 17.0023 24.1508 16.1574 23.0242C15.3125 21.8977 14.8995 20.33 14.9183 18.3211L14.9746 10.0975H19.2835L19.2272 17.9831C19.2272 18.828 19.3774 19.4945 19.6778 19.9827C19.9782 20.4708 20.4475 20.7149 21.0859 20.7149C21.6304 20.7149 22.1279 20.5459 22.5785 20.208C23.0291 19.87 23.4234 19.3068 23.7614 18.5182C24.0993 17.7296 24.3622 16.6501 24.5499 15.2795C24.7564 13.9089 24.8691 12.1816 24.8879 10.0975H29.056V24.4324H24.7471L24.9442 21.6724C24.3809 22.6487 23.6675 23.3998 22.8038 23.9255C21.9402 24.4512 20.9732 24.714 19.9031 24.714Z" fill="#232124"/>
<path d="M57.7934 10.0975L58.1876 24.4324H54.1314V10.0975H57.7934Z" fill="#232124"/>
<path d="M67.6562 24.714C66.1729 24.714 64.8868 24.4324 63.7979 23.8691C62.7089 23.2871 61.8639 22.461 61.2631 21.3908C60.6623 20.3206 60.3619 19.0439 60.3619 17.5607C60.3619 16.0399 60.6811 14.7068 61.3194 13.5616C61.9766 12.3975 62.8779 11.4963 64.0232 10.8579C65.1684 10.2008 66.5015 9.87224 68.0223 9.87224C69.2614 9.87224 70.3598 10.1163 71.3173 10.6045C72.2749 11.0926 73.0446 11.853 73.6267 12.8857L70.5851 15.195C70.2847 14.6505 69.928 14.2562 69.5149 14.0122C69.1206 13.7681 68.6231 13.646 68.0223 13.646C67.1023 13.646 66.3419 14.0028 65.7411 14.7162C65.1403 15.4109 64.8399 16.3309 64.8399 17.4762C64.8399 18.5839 65.1027 19.4382 65.6284 20.039C66.1729 20.6398 66.9521 20.9402 67.9659 20.9402C68.5104 20.9402 69.008 20.8182 69.4586 20.5741C69.928 20.3112 70.3222 19.9076 70.6414 19.3631L73.5985 21.7288C72.9602 22.8177 72.1153 23.5875 71.0639 24.0381C70.0312 24.4887 68.8953 24.714 67.6562 24.714Z" fill="#232124"/>
<path d="M89.8302 10.1539V24.4324H85.4932L85.634 22.292C84.6014 23.9067 83.0712 24.714 81.0434 24.714C79.7667 24.714 78.6778 24.423 77.7766 23.841C76.8754 23.2589 76.1901 22.4516 75.7207 21.419C75.2513 20.3863 75.0166 19.2035 75.0166 17.8705C75.0166 16.2746 75.3452 14.8758 76.0023 13.6742C76.6595 12.4726 77.5419 11.5432 78.6496 10.8861C79.7573 10.2102 80.9965 9.87224 82.3671 9.87224C83.2683 9.87224 84.0663 10.06 84.7609 10.4355C85.4556 10.7922 85.9907 11.271 86.3662 11.8718L86.7323 10.1539H89.8302ZM82.7895 13.6179C81.7569 13.6179 80.9402 14.0028 80.3394 14.7726C79.7574 15.5423 79.4663 16.528 79.4663 17.7296C79.4663 18.7623 79.6916 19.5602 80.1422 20.1235C80.6116 20.6867 81.2406 20.9684 82.0292 20.9684C82.9867 20.9684 83.8034 20.5741 84.4793 19.7855C85.174 18.997 85.5213 17.9643 85.5213 16.6876C85.5213 15.7301 85.2773 14.9791 84.7891 14.4346C84.301 13.8901 83.6344 13.6179 82.7895 13.6179Z" fill="#232124"/>
<path d="M98.2091 24.714C96.4442 24.714 95.0455 24.2259 94.0128 23.2495C92.9802 22.2545 92.4733 20.9496 92.492 19.3349L92.6047 13.6742L92.661 10.0975L92.6892 7.16861H96.9699L96.9417 10.0975H101.42V13.6742H96.8854L96.8009 18.8562C96.8009 19.5321 96.9793 20.0578 97.336 20.4333C97.6927 20.8088 98.2279 20.9965 98.9413 20.9965C99.3544 20.9965 99.7486 20.9496 100.124 20.8557C100.518 20.7431 100.922 20.5365 101.335 20.2361L102.574 23.5312C101.617 24.3197 100.162 24.714 98.2091 24.714Z" fill="#232124"/>
<path d="M54.1572 7.55503C54.6122 8.05354 55.2248 8.30279 55.9949 8.30279C56.7649 8.30279 57.3775 8.05354 57.8325 7.55503C58.2876 7.05652 58.5151 6.46569 58.5151 5.78255C58.5151 5.0994 58.2876 4.50857 57.8325 4.01006C57.3775 3.51155 56.7649 3.2623 55.9949 3.2623C55.2073 3.2623 54.586 3.51155 54.1309 4.01006C53.6934 4.50857 53.4746 5.0994 53.4746 5.78255C53.4746 6.46569 53.7021 7.05652 54.1572 7.55503Z" fill="#232124"/>
<path d="M41.3417 14.2658C40.9662 14.1156 40.2335 13.9637 39.6058 13.8474C37.566 13.4693 35.7267 14.7294 35.5734 16.3676C35.4201 18.0058 35.8218 21.9354 35.8218 24.4325H31.541V16.3676C31.541 13.8474 32.8248 11.9572 34.3369 11.0751C35.7619 10.2439 37.9898 9.70985 40.3841 9.87237C41.3936 9.94089 42.1021 10.1258 42.1021 10.1258L41.3417 14.2658Z" fill="#232124"/>
<path d="M43.9834 24.4322V13.674L43.9834 10.0974L43.9834 9.64677C43.9834 8.35128 44.265 7.23416 44.8282 6.29541C45.3915 5.33787 46.1519 4.60564 47.1094 4.09871C48.0857 3.573 49.1841 3.31015 50.4045 3.31015C50.4045 3.31015 52.0761 3.4361 52.4262 3.64019L51.3902 7.25294C51.1085 7.04641 50.7518 6.94315 50.32 6.94315C49.6629 6.94315 49.1465 7.14967 48.771 7.56273C48.4143 7.95701 48.0158 8.52965 48.0158 9.28066V10.0974H51.3902V13.674H48.0158L48.2923 24.4322H43.9834Z" fill="#232124"/>
</g>
<defs>
<clipPath id="clip0_3336_2134">
<rect width="104" height="32" fill="white"/>
</clipPath>
</defs>
</svg>
